<?xml version="1.0" standalone="no"?>
<!DOCTYPE svg PUBLIC "-//W3C//DTD SVG 20010904//EN"
 "http://www.w3.org/TR/2001/REC-SVG-20010904/DTD/svg10.dtd">
<svg version="1.0" xmlns="http://www.w3.org/2000/svg"
 width="323.000000pt" height="37.000000pt" viewBox="0 0 323.000000 37.000000"
 preserveAspectRatio="xMidYMid meet">

<g transform="translate(0.000000,37.000000) scale(0.100000,-0.100000)"
fill="#000000" stroke="none">
<path d="M12 286 c4 -61 11 -85 34 -123 114 -184 375 -169 463 27 26 56 30
170 6 170 -10 0 -15 -11 -15 -35 0 -149 -94 -254 -228 -255 -128 0 -216 86
-225 221 -3 52 -7 65 -22 67 -16 4 -17 -3 -13 -72z"/>
<path d="M1820 195 c0 -140 2 -165 15 -165 13 0 15 25 15 165 0 140 -2 165
-15 165 -13 0 -15 -25 -15 -165z"/>
<path d="M1996 281 c-36 -43 -66 -82 -66 -85 0 -18 135 -166 152 -166 10 0 18
3 18 8 0 4 -29 41 -64 83 l-64 75 54 65 c73 86 80 99 55 99 -12 0 -44 -30 -85
-79z"/>
<path d="M780 170 l0 -129 28 0 c15 0 46 -3 69 -7 39 -6 46 -3 78 29 46 46 48
92 6 139 -24 27 -36 32 -72 32 -24 0 -52 -3 -61 -8 -16 -7 -18 -3 -18 33 0 30
-4 41 -15 41 -13 0 -15 -21 -15 -130z m171 -11 c10 -26 9 -34 -7 -56 -27 -35
-54 -44 -92 -28 -38 17 -52 57 -31 94 28 50 107 43 130 -10z"/>
<path d="M2880 260 c0 -37 -2 -41 -17 -34 -10 5 -37 8 -61 8 -60 0 -97 -37
-97 -99 0 -35 6 -50 27 -72 29 -28 45 -30 148 -21 l35 3 0 125 c0 111 -2 125
-17 128 -15 3 -18 -4 -18 -38z m-16 -82 c49 -70 -41 -150 -104 -93 -24 22 -26
71 -3 97 24 27 87 24 107 -4z"/>
<path d="M657 233 c-4 -3 -20 -6 -37 -5 l-30 1 0 -101 c0 -75 3 -99 13 -96 7
3 14 32 17 77 5 75 15 91 57 91 12 0 25 5 29 11 11 18 -33 39 -49 22z"/>
<path d="M1115 229 c-36 -21 -55 -53 -55 -95 0 -72 64 -118 136 -96 19 5 43 8
54 5 19 -5 20 0 20 90 l0 96 -27 0 c-16 -1 -46 2 -68 5 -24 4 -48 2 -60 -5z
m109 -62 c19 -26 19 -30 5 -55 -32 -57 -105 -59 -129 -3 -12 30 -1 75 22 84
33 14 81 2 102 -26z"/>
<path d="M1417 234 c-4 -4 -23 -7 -42 -6 l-36 1 3 -97 c2 -78 6 -97 18 -97 12
0 16 17 20 73 5 76 15 92 55 92 40 0 50 -17 55 -91 3 -45 10 -74 18 -77 9 -3
12 17 12 75 0 70 -3 82 -22 101 -25 23 -70 37 -81 26z"/>
<path d="M2100 231 c0 -18 82 -201 90 -201 6 0 32 57 87 198 3 7 -2 12 -12 12
-11 0 -26 -21 -43 -60 -15 -33 -30 -60 -33 -60 -4 0 -18 27 -32 60 -16 36 -33
60 -42 60 -8 0 -15 -4 -15 -9z"/>
<path d="M2350 136 c0 -89 3 -106 15 -106 13 0 15 16 13 102 -2 70 -7 103 -15
106 -10 3 -13 -22 -13 -102z"/>
<path d="M2528 235 c-3 -4 -21 -7 -40 -8 l-33 -2 -3 -85 c-1 -47 2 -91 7 -99
17 -27 31 1 31 64 0 72 14 95 60 95 38 0 44 -12 50 -95 4 -53 9 -70 20 -70 12
0 15 14 14 73 0 63 -3 76 -25 97 -25 24 -70 41 -81 30z"/>
<path d="M3060 233 c-56 -20 -83 -89 -56 -141 33 -64 102 -82 152 -39 38 33
23 52 -20 26 -35 -20 -57 -18 -88 9 -31 27 -20 32 67 32 85 0 85 0 85 26 0 65
-74 111 -140 87z m70 -38 c47 -24 35 -35 -36 -35 -60 0 -65 2 -53 16 11 13 39
30 57 33 2 1 16 -6 32 -14z"/>
</g>
</svg>
